<?xml version="1.0" standalone="no"?>
<!DOCTYPE svg PUBLIC "-//W3C//DTD SVG 1.1//EN" "http://www.w3.org/Graphics/SVG/1.1/DTD/svg11.dtd">
<svg xmlns="http://www.w3.org/2000/svg">
<defs >
<font id="BIZUDGothic" horiz-adv-x="1718" ><font-face
    font-family="BIZ UDGothic"
    units-per-em="2048"
    panose-1="2 11 8 0 0 0 0 0 0 0"
    ascent="1802"
    descent="-246"
    alphabetic="0" />
<glyph unicode=" " horiz-adv-x="1024" />
<glyph unicode="!" horiz-adv-x="1024" d="M645 1669L596 375H428L379 1669H645ZM379 195H645V-113H379V195Z" />
<glyph unicode="&quot;" horiz-adv-x="1024" d="M143 1751H450V1587Q450 1325 284 1116H143Q260 1268 280 1444H143V1751ZM553 1751H860V1587Q860 1325 694 1116H553Q670 1268 690 1444H553V1751Z" />
<glyph unicode="#" horiz-adv-x="1024" d="M319 1698H485L448 1270H661L698 1698H864L827 1270H973V1080H811L758 477H909V287H741L704 -141H538L575 287H362L325 -141H160L196 287H51V477H213L266 1080H114V1270H282L319 1698ZM432 1080L379 477H592L645 1080H432Z" />
<glyph unicode="$" horiz-adv-x="1024" d="M463 1751H592V1559Q723 1552 833 1470Q911 1413 954 1362L833 1198Q807 1234 733 1295Q677 1341 592 1360V899L610 891Q780 815 857 738Q969 626 969 426Q969 223 832 95Q736 5 592 -4V-195H463V-4Q351 8 227 82Q132
139 49 227L176 403Q235 333 321 279Q382 239 463 219V715Q289 787 215 858Q162 909 135 959Q92 1038 92 1157Q92 1303 183 1419Q279 1539 463 1563V1751ZM592 657V217Q661 236 700 275Q760 336 760 428Q760 512 711 565Q668 611 592 657ZM463 1362Q297 1321 297
1168Q297 1085 350 1030Q383 997 463 956V1362Z" />
<glyph unicode="%" horiz-adv-x="1024" d="M809 1608H938L215 -51H86L809 1608ZM281 1649Q520 1649 520 1220Q520 791 280 791Q39 791 39 1221Q39 1649 281 1649ZM280 1493Q246 1493 230 1453Q205 1393 205 1214Q205 1046 229 988Q246 947 279 947Q316 947 333
993Q354 1052 354 1216Q354 1387 332 1448Q316 1493 280 1493ZM743 766Q985 766 985 338Q985 -92 742 -92Q504 -92 504 339Q504 766 743 766ZM743 610Q708 610 691 564Q670 505 670 340Q670 171 692 109Q707 64 744 64Q778 64 794 104Q819 165 819 344Q819 509
794 569Q778 610 743 610Z" />
<glyph unicode="&amp;" horiz-adv-x="1024" d="M877 -94Q769 47 719 137Q698 81 670 44Q571 -88 409 -88Q283 -88 194 20Q80 158 80 380Q80 680 289 858Q184 1041 184 1252Q184 1400 245 1504Q327 1645 464 1645Q566 1645 644 1557Q746 1442 746 1256Q746 961
541 803Q632 608 696 485L700 503Q746 703 756 825L934 748Q885 452 825 326L834 314Q938 173 1004 109L877 -94ZM447 944Q551 1083 551 1252Q551 1343 520 1399Q495 1444 463 1444Q430 1444 409 1396Q383 1340 383 1250Q383 1096 447 944ZM381 711Q285 570 285
393Q285 269 331 192Q367 131 419 131Q535 131 594 289Q442 567 381 711Z" />
<glyph unicode="&apos;" horiz-adv-x="1024" d="M143 1751H450V1587Q450 1325 284 1116H143Q260 1268 280 1444H143V1751Z" />
<glyph unicode="(" horiz-adv-x="1024" d="M686 -195Q503 -30 386 208Q242 501 242 779Q242 1094 423 1420Q533 1617 686 1751H881Q747 1597 665 1467Q457 1135 457 777Q457 439 643 125Q731 -23 881 -195H686Z" />
<glyph unicode=")" horiz-adv-x="1024" d="M143 -195Q277 -41 359 89Q567 421 567 777Q567 1117 381 1431Q294 1577 143 1751H338Q521 1585 638 1348Q782 1055 782 778Q782 462 600 136Q491 -60 338 -195H143Z" />
<glyph unicode="*" horiz-adv-x="1024" d="M469 850L401 1194Q398 1211 398 1229Q398 1276 426 1306Q458 1341 512 1341Q556 1341 587 1316Q626 1285 626 1229Q626 1212 622 1194L555 850L776 1104Q820 1154 871 1154Q916 1154 951 1117Q984 1081 984 1037Q984
967 907 930L594 778L907 627Q984 590 984 519Q984 483 960 450Q924 402 871 402Q820 402 776 453L555 707L622 362Q626 344 626 327Q626 280 598 250Q566 215 511 215Q467 215 437 240Q398 271 398 326Q398 346 401 362L469 707L248 453Q204 402 152 402Q107 402
72 440Q39 476 39 519Q39 589 117 627L430 778L117 930Q39 967 39 1037Q39 1073 63 1106Q99 1154 152 1154Q204 1154 248 1104L469 850Z" />
<glyph unicode="+" horiz-adv-x="1024" d="M428 1392H596V862H942V694H596V164H428V694H82V862H428V1392Z" />
<glyph unicode="," horiz-adv-x="1024" d="M143 367H479V195Q479 7 381 -148Q348 -201 301 -243H125Q257 -113 282 43H143V367Z" />
<glyph unicode="-" horiz-adv-x="1024" d="M82 862H942V694H82V862Z" />
<glyph unicode="." horiz-adv-x="1024" d="M143 285H479V-51H143V285Z" />
<glyph unicode="/" horiz-adv-x="1024" d="M828 1745L951 1690L197 -188L74 -133L828 1745Z" />
<glyph unicode="0" horiz-adv-x="1024" d="M513 1649Q715 1649 822 1430Q930 1207 930 776Q930 365 831 143Q725 -96 512 -96Q310 -96 204 120Q94 342 94 773Q94 1231 214 1453Q320 1649 513 1649ZM511 1442Q340 1442 340 775Q340 115 512 115Q684 115 684 772Q684
1442 511 1442Z" />
<glyph unicode="1" horiz-adv-x="1024" d="M429 -51V1350Q352 1302 196 1251L155 1440Q339 1503 494 1618H660V-51H429Z" />
<glyph unicode="2" horiz-adv-x="1024" d="M115 -51V166Q145 323 225 467Q289 580 432 753L471 800Q580 933 613 993Q656 1070 656 1192Q656 1282 627 1342Q582 1435 485 1435Q402 1435 340 1370Q293 1320 246 1216L90 1343Q140 1463 222 1537Q341 1644 496 1644Q695
1644 807 1496Q897 1378 897 1202Q897 1028 813 895Q788 855 667 713Q652 695 626 663L577 604Q468 471 410 351Q356 238 354 180H907V-51H115Z" />
<glyph unicode="3" horiz-adv-x="1024" d="M282 922H427Q538 922 594 996Q658 1080 658 1210Q658 1297 617 1359Q563 1441 470 1441Q335 1441 221 1276L92 1427Q153 1523 256 1579Q369 1642 489 1642Q626 1642 727 1571Q896 1454 896 1214Q896 1049 814 950Q735
855 618 825V817Q925 743 925 395Q925 153 779 14Q672 -88 474 -88Q223 -88 57 162L204 315Q259 220 334 170Q404 123 474 123Q592 123 648 223Q685 290 685 399Q685 556 624 629Q551 715 423 715H282V922Z" />
<glyph unicode="4" horiz-adv-x="1024" d="M559 1618H825V516H985V309H825V-51H604V309H43V520L559 1618ZM614 516V891Q614 1082 630 1384H622L613 1356Q543 1135 493 1030L248 516H614Z" />
<glyph unicode="5" horiz-adv-x="1024" d="M178 1608H852V1395H383L354 903H362Q424 1014 550 1014Q641 1014 724 951Q906 811 906 475Q906 283 836 144Q787 47 709 -12Q610 -88 484 -88Q269 -88 104 129L227 293Q348 127 482 127Q557 127 607 202Q673 299 673
476Q673 617 634 710Q586 819 500 819Q376 819 327 635L133 672L178 1608Z" />
<glyph unicode="6" horiz-adv-x="1024" d="M319 827Q358 911 421 960Q487 1010 563 1010Q712 1010 814 877Q925 732 925 481Q925 215 819 70Q701 -90 529 -90Q313 -90 190 157Q102 336 102 691Q102 1016 277 1286Q431 1522 673 1645L782 1477Q588 1378 452 1181Q337
1015 313 827H319ZM530 832Q448 832 400 724Q352 616 352 495Q352 373 395 245Q436 121 528 121Q607 121 649 226Q692 335 692 483Q692 660 639 757Q598 832 530 832Z" />
<glyph unicode="7" horiz-adv-x="1024" d="M115 1608H944V1424Q840 1133 736 663Q651 283 600 -51H367Q459 541 696 1381H336V1032H115V1608Z" />
<glyph unicode="8" horiz-adv-x="1024" d="M313 799Q115 952 115 1201Q115 1374 204 1496Q315 1649 502 1649Q687 1649 797 1506Q889 1388 889 1217Q889 1039 805 930Q756 866 676 813V807Q924 642 924 361Q924 170 820 46Q701 -96 503 -96Q302 -96 187 41Q86
162 86 354Q86 620 313 791V799ZM504 897Q570 942 613 1016Q660 1098 660 1196Q660 1310 619 1386Q574 1469 502 1469Q440 1469 398 1404Q348 1328 348 1200Q348 1089 393 1013Q429 952 487 909Q503 896 504 897ZM496 700Q326 593 326 371Q326 266 362 196Q410
101 503 101Q583 101 633 178Q682 254 682 376Q682 481 631 567Q588 640 524 683Q498 702 496 700Z" />
<glyph unicode="9" horiz-adv-x="1024" d="M674 674Q656 623 624 589Q548 510 438 510Q290 510 192 651Q86 804 86 1055Q86 1306 186 1471Q294 1647 482 1647Q680 1647 789 1453Q897 1263 897 864Q897 394 741 178Q594 -25 264 -115L160 76Q418 131 537 270Q662
416 682 674H674ZM481 1440Q401 1440 366 1348Q319 1227 319 1064Q319 909 364 803Q403 709 476 709Q552 709 600 815Q649 925 649 1059Q649 1222 600 1340Q559 1440 481 1440Z" />
<glyph unicode=":" horiz-adv-x="1024" d="M358 1382H665V1075H358V1382ZM358 481H665V174H358V481Z" />
<glyph unicode=";" horiz-adv-x="1024" d="M358 1382H665V1075H358V1382ZM358 522H665V358Q665 96 499 -113H358Q475 39 495 215H358V522Z" />
<glyph unicode="&lt;" horiz-adv-x="1024" d="M942 1401V1200L325 778L942 356V156L53 778L942 1401Z" />
<glyph unicode="=" horiz-adv-x="1024" d="M82 1081H942V913H82V1081ZM82 643H942V475H82V643Z" />
<glyph unicode="&gt;" horiz-adv-x="1024" d="M82 1401L971 778L82 156V356L698 778L82 1200V1401Z" />
<glyph unicode="?" horiz-adv-x="1024" d="M369 195H635V-113H369V195ZM72 1434Q219 1698 508 1698Q655 1698 767 1624Q847 1571 895 1488Q951 1392 951 1280Q951 1160 885 1059Q838 987 727 881Q586 745 586 375H414Q415 599 445 724Q479 861 593 996Q730 1158
730 1274Q730 1394 646 1456Q596 1493 507 1493Q329 1493 222 1298L72 1434Z" />
<glyph unicode="@" horiz-adv-x="1024" d="M655 1245L756 1214Q716 919 716 667Q716 547 725 504Q730 475 747 475Q764 475 778 507Q831 619 831 862Q831 1122 761 1288Q673 1495 507 1495Q378 1495 289 1344Q182 1164 182 778Q182 428 275 233Q357 62 505 62Q685
62 799 256L905 158Q770 -90 504 -90Q292 -90 170 125Q45 346 45 779Q45 1138 140 1362Q260 1647 503 1647Q706 1647 834 1455Q969 1251 969 884Q969 611 892 456Q826 322 732 322Q638 322 612 444Q550 299 440 299Q367 299 316 383Q254 484 254 676Q254 972 348
1145Q415 1268 508 1268Q589 1268 637 1182L655 1245ZM526 1110Q484 1110 452 1025Q404 898 404 671Q404 469 466 469Q510 469 544 555Q592 678 592 904Q592 1110 526 1110Z" />
<glyph unicode="A" horiz-adv-x="1024" d="M395 1616H628L1005 -51H757L667 387H356L266 -51H18L395 1616ZM634 594L555 1061Q528 1216 516 1354H507Q494 1217 478 1118Q473 1090 469 1061L389 594H634Z" />
<glyph unicode="B" horiz-adv-x="1024" d="M109 1608H477Q619 1608 711 1559Q806 1508 855 1399Q897 1309 897 1193Q897 875 647 813V807Q936 730 936 413Q936 145 772 22Q676 -51 518 -51H109V1608ZM332 1411V912H451Q659 912 659 1163Q659 1411 459 1411H332ZM332
713V150H484Q574 150 622 204Q692 284 692 430Q692 606 588 676Q533 713 455 713H332Z" />
<glyph unicode="C" horiz-adv-x="1024" d="M952 164Q821 -90 592 -90Q367 -90 230 130Q80 370 80 775Q80 1162 221 1409Q357 1647 579 1647Q795 1647 938 1407L805 1241Q760 1322 724 1361Q662 1430 584 1430Q492 1430 420 1292Q322 1100 322 769Q322 481 410
301Q451 218 488 179Q532 133 596 133Q726 133 813 340L952 164Z" />
<glyph unicode="D" horiz-adv-x="1024" d="M68 1608H369Q553 1608 697 1518Q822 1439 895 1275Q987 1070 987 781Q987 484 891 272Q813 100 694 29Q559 -51 360 -51H68V1608ZM301 1393V168H379Q533 168 619 275Q745 433 745 779Q745 1122 612 1291Q531 1393 385
1393H301Z" />
<glyph unicode="E" horiz-adv-x="1024" d="M158 1608H881V1393H389V907H822V694H389V170H899V-51H158V1608Z" />
<glyph unicode="F" horiz-adv-x="1024" d="M182 1608H907V1389H415V895H850V682H415V-51H182V1608Z" />
<glyph unicode="G" horiz-adv-x="1024" d="M779 -60L767 126Q746 53 708 5Q632 -89 511 -89Q277 -89 149 169Q41 388 41 770Q41 1161 182 1408Q318 1646 558 1646Q772 1646 938 1419L795 1253Q692 1429 558 1429Q438 1429 371 1275Q291 1094 291 764Q291 453 347
314Q382 225 420 182Q465 130 527 130Q620 130 677 210Q717 266 733 331Q744 376 744 390V583H520V786H967V-60H779Z" />
<glyph unicode="H" horiz-adv-x="1024" d="M82 1608H311V915H713V1608H942V-51H713V700H311V-51H82V1608Z" />
<glyph unicode="I" horiz-adv-x="1024" d="M225 1608H799V1424H631V133H799V-51H225V133H393V1424H225V1608Z" />
<glyph unicode="J" horiz-adv-x="1024" d="M525 1608H758V377Q758 143 666 30Q567 -90 373 -90Q260 -90 160 -12Q82 49 44 137L160 297Q242 129 372 129Q472 129 508 228Q525 275 525 404V1608Z" />
<glyph unicode="K" horiz-adv-x="1024" d="M94 1608H325V899L700 1608H958L542 865L991 -51H722L399 697L325 561V-51H94V1608Z" />
<glyph unicode="L" horiz-adv-x="1024" d="M190 1608H426V176H903V-51H190V1608Z" />
<glyph unicode="M" horiz-adv-x="1024" d="M51 1608H297L455 881Q482 753 508 489H516Q539 742 569 881L727 1608H973V-51H770L780 637Q783 812 842 1362H834Q808 1179 768 979L617 227H407L256 979Q214 1187 190 1362H182Q242 772 244 637L254 -51H51V1608Z" />
<glyph unicode="N" horiz-adv-x="1024" d="M82 1608H340L647 787Q701 643 755 355L762 322H770Q732 642 725 1092L717 1608H942V-51H741L383 883Q338 1001 256 1356H248Q291 975 297 598L307 -51H82V1608Z" />
<glyph unicode="O" horiz-adv-x="1024" d="M514 1647Q723 1647 846 1421Q973 1187 973 782Q973 399 861 166Q737 -90 511 -90Q288 -90 165 163Q51 398 51 783Q51 1183 175 1416Q298 1647 514 1647ZM511 1438Q420 1438 363 1283Q297 1107 297 782Q297 453 363 277Q419
127 512 127Q603 127 659 272Q727 448 727 780Q727 1151 644 1325Q590 1438 511 1438Z" />
<glyph unicode="P" horiz-adv-x="1024" d="M150 1608H474Q677 1608 785 1514Q842 1466 885 1386Q953 1259 953 1103Q953 837 835 704Q774 634 664 597Q573 566 476 566H386V-51H150V1608ZM386 1403V770H458Q595 770 656 856Q707 929 707 1098Q707 1259 653 1328Q594
1403 472 1403H386Z" />
<glyph unicode="Q" horiz-adv-x="1024" d="M893 -154Q804 -67 737 43Q649 -90 503 -90Q301 -90 177 153Q55 393 55 783Q55 1176 169 1406Q288 1647 503 1647Q711 1647 834 1406Q958 1166 958 783Q958 437 868 195Q908 115 1001 35L893 -154ZM522 612Q650 449 696
371Q720 496 720 767Q720 1114 653 1290Q597 1438 505 1438Q420 1438 364 1309Q288 1134 288 780Q288 449 355 272Q413 115 507 115Q579 115 606 190Q540 309 424 442L522 612Z" />
<glyph unicode="R" horiz-adv-x="1024" d="M109 1608H475Q651 1608 761 1514Q799 1481 834 1425Q907 1309 907 1155Q907 962 809 842Q737 754 612 731V725Q722 670 783 523Q853 358 989 -51H717Q578 428 539 512Q481 641 385 641H342V-51H109V1608ZM342 1407V838H449Q545
838 605 917Q663 992 663 1136Q663 1266 609 1339Q560 1407 461 1407H342Z" />
<glyph unicode="S" horiz-adv-x="1024" d="M191 332Q338 129 505 129Q582 129 637 191Q684 244 684 372Q684 495 615 571Q573 618 461 698L410 735Q276 832 221 912Q119 1061 119 1219Q119 1394 219 1511Q332 1645 521 1645Q729 1645 889 1477L766 1303Q720 1369
677 1398Q618 1436 535 1436Q448 1436 401 1372Q357 1312 357 1220Q357 1126 415 1045Q444 1004 547 924L621 866L640 851Q788 735 844 659Q934 536 934 377Q934 180 839 58Q725 -88 510 -88Q250 -88 68 154L191 332Z" />
<glyph unicode="T" horiz-adv-x="1024" d="M55 1608H968V1385H628V-51H395V1385H55V1608Z" />
<glyph unicode="U" horiz-adv-x="1024" d="M84 1608H309V518Q309 327 358 230Q380 185 407 161Q445 127 513 127Q715 127 715 518V1608H940V502Q940 291 878 153Q858 110 832 73Q713 -92 510 -92Q345 -92 230 27Q84 179 84 502V1608Z" />
<glyph unicode="V" horiz-adv-x="1024" d="M47 1608H276L461 618Q486 483 504 308L508 272H516Q536 472 563 618L747 1608H977L625 -74H399L47 1608Z" />
<glyph unicode="W" horiz-adv-x="1024" d="M2 1608H201L260 713L262 684Q276 440 283 285H291L294 335Q311 599 324 705L412 1475H612L700 705Q712 599 731 318L733 285H741Q749 490 764 713L823 1608H1022L856 -74H645L539 750Q516 921 516 1112H508Q505 903
485 750L379 -74H168L2 1608Z" />
<glyph unicode="X" horiz-adv-x="1024" d="M63 1608H317L512 969L707 1608H961L649 787L981 -51H725L512 600L299 -51H43L375 787L63 1608Z" />
<glyph unicode="Y" horiz-adv-x="1024" d="M35 1608H289L512 889L734 1608H988L628 668V-51H395V668L35 1608Z" />
<glyph unicode="Z" horiz-adv-x="1024" d="M102 1608H915V1430L456 432Q380 267 323 180V172H944V-51H61V123L522 1121Q585 1257 661 1385V1391H102V1608Z" />
<glyph unicode="[" horiz-adv-x="1024" d="M246 1751H881V1546H451V10H881V-195H246V1751Z" />
<glyph unicode="\" horiz-adv-x="1024" d="M197 1745L951 -133L828 -188L74 1690L197 1745Z" />
<glyph unicode="]" horiz-adv-x="1024" d="M778 1751V-195H143V10H573V1546H143V1751H778Z" />
<glyph unicode="^" horiz-adv-x="1024" d="M371 1620H654L914 1333H711L512 1507L314 1333H111L371 1620Z" />
<glyph unicode="_" horiz-adv-x="1024" d="M0 -195H1024V-246H0V-195Z" />
<glyph unicode="`" horiz-adv-x="1024" d="M516 1620L755 1333H534L186 1620H516Z" />
<glyph unicode="a" horiz-adv-x="1024" d="M670 743V766Q670 880 633 941Q597 999 492 999Q350 999 252 868L141 1022Q284 1196 501 1196Q714 1196 811 1058Q895 939 895 733V311Q895 72 952 -51H766Q733 17 719 139H711Q657 -86 422 -86Q267 -86 169 25Q78 127
78 290Q78 534 262 647Q420 743 637 743H670ZM670 567H633Q305 567 305 298Q305 217 340 169Q377 115 439 115Q521 115 591 205Q628 253 650 338Q670 412 670 475V567Z" />
<glyph unicode="b" horiz-adv-x="1024" d="M133 1700H362V1008Q390 1093 452 1143Q512 1190 579 1190Q717 1190 817 1034Q933 853 933 549Q933 275 839 103Q736 -88 563 -88Q475 -88 406 -21Q351 32 335 109L317 -57H133V1700ZM362 354Q412 113 527 113Q592 113
635 202Q691 320 691 545Q691 769 633 895Q590 991 527 991Q480 991 433 936Q380 875 362 780V354Z" />
<glyph unicode="c" horiz-adv-x="1024" d="M915 135Q790 -92 564 -92Q360 -92 230 83Q100 260 100 546Q100 815 216 993Q348 1196 564 1196Q757 1196 886 1020L774 846Q731 907 701 936Q645 991 567 991Q489 991 431 908Q340 780 340 547Q340 340 416 217Q479
117 560 117Q616 117 681 174Q733 219 776 293L915 135Z" />
<glyph unicode="d" horiz-adv-x="1024" d="M662 1700H891V-57H672V109Q625 -88 459 -88Q305 -88 204 69Q91 245 91 550Q91 816 182 992Q286 1190 456 1190Q608 1190 662 1008V1700ZM662 781Q597 991 498 991Q432 991 389 893Q333 768 333 544Q333 325 386 208Q429
113 496 113Q598 113 662 367V781Z" />
<glyph unicode="e" horiz-adv-x="1024" d="M885 506H344Q347 320 407 215Q462 119 540 119Q604 119 666 179Q717 229 752 309L893 156Q756 -92 527 -92Q333 -92 218 96Q111 270 111 545Q111 818 203 992Q311 1198 512 1198Q720 1198 814 992Q885 836 885 571V506ZM650
692Q644 842 603 924Q564 1003 505 1003Q451 1003 410 925Q365 840 357 692H650Z" />
<glyph unicode="f" horiz-adv-x="1024" d="M329 1157V1278Q329 1446 377 1543Q455 1700 630 1700Q758 1700 867 1630L795 1460Q732 1501 675 1501Q611 1501 582 1444Q562 1403 562 1280V1157H828V975H562V-51H329V975H102V1157H329Z" />
<glyph unicode="g" horiz-adv-x="1024" d="M919 1157V258Q919 19 842 -90Q804 -144 734 -182Q623 -244 510 -244Q257 -244 106 -90L205 90Q336 -41 495 -41Q589 -41 644 46Q688 118 688 227V315Q669 267 637 241Q569 186 479 186Q356 186 256 281Q100 428 100
685Q100 894 211 1041Q324 1190 486 1190Q568 1190 639 1142Q686 1110 717 1059L735 1157H919ZM688 809Q672 876 640 918Q588 985 515 985Q452 985 402 917Q336 827 336 683Q336 543 396 459Q446 389 513 389Q584 389 638 456Q675 502 688 571V809Z" />
<glyph unicode="h" horiz-adv-x="1024" d="M133 1700H362V1000Q384 1060 424 1100Q502 1180 601 1180Q722 1180 804 1078Q891 969 891 701V-51H662V699Q662 967 557 967Q501 967 445 887Q388 804 362 668V-51H133V1700Z" />
<glyph unicode="i" horiz-adv-x="1024" d="M385 1677H639V1403H385V1677ZM393 1157H631V-51H393V1157Z" />
<glyph unicode="j" horiz-adv-x="1024" d="M399 1677H653V1403H399V1677ZM407 1157H645V209Q645 -52 536 -143Q436 -228 202 -244L128 -33Q285 -33 343 16Q407 70 407 217V1157Z" />
<glyph unicode="k" horiz-adv-x="1024" d="M133 1700H362V700L669 1157H937L630 694L954 -51H684L473 524L362 367V-51H133V1700Z" />
<glyph unicode="l" horiz-adv-x="1024" d="M365 1700H603V203Q603 158 646 158H798L773 -51H572Q365 -51 365 162V1700Z" />
<glyph unicode="m" horiz-adv-x="1024" d="M238 1157V944Q267 1180 404 1180Q480 1180 524 1098Q558 1034 559 928Q571 1014 601 1070Q660 1180 766 1180Q868 1180 928 1053Q979 944 979 770V-51H764V723Q764 856 754 916Q744 973 707 973Q677 973 650 910Q618
836 618 725V-51H401V723Q401 856 388 917Q375 973 341 973Q309 973 285 906Q258 834 258 727V-51H43V1157H238Z" />
<glyph unicode="n" horiz-adv-x="1024" d="M133 1157H350V977Q383 1062 440 1113Q514 1180 601 1180Q722 1180 804 1078Q891 969 891 700V-51H662V698Q662 967 557 967Q501 967 445 887Q388 804 362 668V-51H133V1157Z" />
<glyph unicode="o" horiz-adv-x="1024" d="M513 1196Q702 1196 813 1025Q923 853 923 554Q923 309 850 148Q742 -92 510 -92Q320 -92 209 78Q98 250 98 551Q98 879 228 1052Q337 1196 513 1196ZM511 999Q445 999 402 924Q338 810 338 552Q338 338 384 224Q429
113 512 113Q581 113 623 191Q685 305 685 553Q685 781 634 897Q589 999 511 999Z" />
<glyph unicode="p" horiz-adv-x="1024" d="M352 1157V993Q376 1086 444 1140Q508 1190 580 1190Q720 1190 818 1050Q933 886 933 594Q933 346 850 189Q748 -6 570 -6Q482 -6 420 66Q382 110 364 176V-244H133V1157H352ZM362 403Q425 192 528 192Q599 192 641 282Q691
389 691 595Q691 771 655 872Q613 989 529 989Q475 989 430 924Q386 861 362 747V403Z" />
<glyph unicode="q" horiz-adv-x="1024" d="M660 -244V176Q644 117 611 75Q549 -6 452 -6Q281 -6 179 177Q91 336 91 593Q91 844 176 1003Q277 1190 449 1190Q578 1190 648 1082Q673 1045 687 993L701 1157H891V-244H660ZM662 748Q605 989 495 989Q428 989 387
913Q333 812 333 598Q333 411 372 307Q415 193 497 193Q614 193 662 391V748Z" />
<glyph unicode="r" horiz-adv-x="1024" d="M444 795H454Q480 952 544 1045Q644 1192 780 1192Q841 1192 903 1161L849 918Q811 936 770 936Q687 936 614 849Q499 712 499 522V-51H266V1157H470L444 795Z" />
<glyph unicode="s" horiz-adv-x="1024" d="M219 256Q352 119 502 119Q670 119 670 266Q670 316 629 369Q585 428 530 455L426 506Q297 568 227 649Q161 726 161 850Q161 999 254 1096Q350 1196 509 1196Q714 1196 874 1053L772 866Q647 991 526 991Q468 991 430
965Q380 931 380 860Q380 789 430 739Q456 714 518 682L637 621Q742 566 812 480Q895 379 895 267Q895 99 782 2Q675 -90 502 -90Q270 -90 102 90L219 256Z" />
<glyph unicode="t" horiz-adv-x="1024" d="M583 1534V1157H843V975H583V262Q583 177 592 157Q609 117 650 117Q704 117 765 170L833 10Q737 -84 601 -84Q452 -84 385 34Q350 97 350 236V975H133V1157H350V1415L583 1534Z" />
<glyph unicode="u" horiz-adv-x="1024" d="M133 1157H362V430Q362 139 469 139Q529 139 585 225Q638 306 662 438V1157H891V-51H676V150Q599 -74 417 -74Q258 -74 181 73Q133 165 133 404V1157Z" />
<glyph unicode="v" horiz-adv-x="1024" d="M88 1157H330L461 501Q488 365 508 219H516Q532 381 557 501L690 1157H934L618 -72H391L88 1157Z" />
<glyph unicode="w" horiz-adv-x="1024" d="M12 1157H221L262 499Q271 352 276 196H284L286 222Q300 439 311 506L409 1075H614L712 506Q724 441 734 270Q736 238 739 196H747Q752 353 762 499L803 1157H1011L882 -68H659L540 549Q529 605 516 786H508L506 763Q492
597 483 549L364 -68H141L12 1157Z" />
<glyph unicode="x" horiz-adv-x="1024" d="M72 1157H320L510 725L700 1157H942L645 563L969 -51H707L502 393L305 -51H41L367 563L72 1157Z" />
<glyph unicode="y" horiz-adv-x="1024" d="M78 1157H336L467 672Q483 613 514 399H522L529 442Q557 613 574 672L709 1157H961L592 69Q532 -107 465 -175Q396 -244 281 -244H199L146 -25H252Q323 -25 356 42Q372 73 385 123L402 184L78 1157Z" />
<glyph unicode="z" horiz-adv-x="1024" d="M158 1157H842V997L521 393Q468 294 365 160V154H879V-51H117V111L457 719Q517 825 598 952V960H158V1157Z" />
<glyph unicode="{" horiz-adv-x="1024" d="M166 868Q313 873 369 950Q412 1010 412 1114V1393Q412 1595 512 1674Q607 1748 881 1751V1569Q742 1567 680 1532Q617 1496 617 1389V1098Q617 854 451 778Q617 702 617 459V168Q617 61 680 25Q743 -12 881 -12V-195Q606
-193 511 -117Q412 -37 412 164V442Q412 591 324 649Q269 686 166 688V868Z" />
<glyph unicode="|" horiz-adv-x="1024" d="M451 1802H574V-246H451V1802Z" />
<glyph unicode="}" horiz-adv-x="1024" d="M143 -12Q280 -12 344 25Q407 61 407 168V459Q407 701 573 778Q407 853 407 1098V1389Q407 1495 344 1532Q283 1567 143 1569V1751Q418 1748 512 1673Q612 1594 612 1393V1114Q612 965 700 907Q755 870 858 868V688Q710
683 655 606Q612 547 612 442V164Q612 -37 511 -118Q417 -193 143 -195V-12Z" />
<glyph unicode="~" horiz-adv-x="1024" d="M854 1413Q796 1346 690 1346Q623 1346 506 1397Q399 1444 339 1444Q251 1444 170 1381V1512Q233 1579 336 1579Q396 1579 520 1526Q624 1481 686 1481Q778 1481 854 1542V1413Z" />
<glyph unicode="&#xa0;" horiz-adv-x="1024" />
<glyph unicode="&#xa1;" horiz-adv-x="1024" d="M428 1181H596L645 -113H379L428 1181ZM379 1669H645V1362H379V1669Z" />
<glyph unicode="&#xa2;" horiz-adv-x="1024" d="M622 1636L745 1604L700 1389Q796 1350 881 1251L772 1077Q714 1152 657 1184L483 350Q511 336 550 336Q682 336 766 512L905 354Q780 127 555 127Q499 127 440 143L391 -92L268 -59L323 201Q90 375 90 765Q90 1048
216 1229Q347 1415 575 1415L622 1636ZM534 1210Q440 1195 383 1098Q309 975 309 766Q309 581 377 455L534 1210Z" />
<glyph unicode="&#xa3;" horiz-adv-x="1024" d="M291 924V1108Q291 1352 380 1490Q481 1649 677 1649Q861 1649 969 1493L869 1323Q793 1440 697 1440Q496 1440 496 1110V924H836V754H496V637Q496 428 422 282Q389 218 342 176H949V-51H70V123Q199 212 250 347Q291
457 291 617V754H66V924H291Z" />
<glyph unicode="&#xa4;" horiz-adv-x="1024" d="M899 1079L789 969Q850 893 850 778Q850 663 787 588L897 477L811 391L703 502Q623 440 511 440Q400 440 320 500L211 391L125 477L236 588Q172 663 172 778Q172 894 234 969L123 1079L209 1165L320 1055Q399 1114
512 1114Q624 1114 703 1055L813 1165L899 1079ZM511 997Q448 997 395 964Q293 902 293 776Q293 695 344 635Q408 559 512 559Q572 559 622 588Q729 650 729 778Q729 904 626 966Q574 997 511 997Z" />
<glyph unicode="&#xa5;" horiz-adv-x="1024" d="M45 1608H278L512 940L746 1608H979L662 866H928V731H615V506H928V371H615V-51H410V371H96V506H410V731H96V866H362L45 1608Z" />
<glyph unicode="&#xa6;" horiz-adv-x="1024" d="M451 1731H574V850H451V1731ZM451 707H574V-174H451V707Z" />
<glyph unicode="&#xa7;" horiz-adv-x="2048" d="M686 252Q851 81 1073 81Q1157 81 1221 122Q1272 155 1272 209Q1272 265 1219 301Q1149 348 981 412L879 451Q705 516 631 570Q510 659 510 822Q510 1003 682 1098Q576 1185 576 1329Q576 1471 707 1571Q834 1667
1028 1667Q1240 1667 1411 1536Q1456 1501 1497 1454L1356 1313Q1200 1472 1031 1472Q924 1472 877 1441Q818 1403 818 1349Q818 1281 890 1237Q937 1208 1079 1157L1153 1130Q1330 1067 1421 1008Q1559 919 1559 741Q1559 560 1372 453Q1503 375 1503 218Q1503
79 1401 -4Q1265 -115 1055 -115Q743 -115 528 102L686 252ZM893 993Q831 985 791 938Q750 891 750 836Q750 764 824 715Q870 685 1026 621L1085 596Q1107 587 1133 577Q1189 555 1217 541Q1329 596 1329 710Q1329 806 1246 852Q1176 890 981 961L893 993Z" />
<glyph unicode="&#xa8;" horiz-adv-x="2048" d="M637 1599H903V1333H637V1599ZM1145 1599H1411V1333H1145V1599Z" />
<glyph unicode="&#xa9;" horiz-adv-x="1024" d="M783 580Q710 457 530 457Q398 457 313 533Q213 623 213 783Q213 922 296 1012Q385 1108 525 1108Q675 1108 775 993L686 895Q625 989 526 989Q459 989 414 939Q363 882 363 783Q363 721 386 672Q428 580 533 580Q637
580 686 674L783 580ZM515 1264Q610 1264 703 1224Q807 1179 880 1093Q998 953 998 777Q998 680 958 588Q913 484 827 411Q687 293 510 293Q414 293 322 333Q218 378 145 464Q27 603 27 780Q27 996 198 1146Q333 1264 515 1264ZM510 1196Q396 1196 293 1132Q211
1080 159 998Q95 895 95 777Q95 654 167 547Q222 465 307 416Q404 361 514 361Q644 361 755 440Q838 500 884 591Q930 681 930 779Q930 881 879 975Q787 1141 607 1185Q560 1196 510 1196Z" />
<glyph unicode="&#xaa;" horiz-adv-x="1024" d="M604 1323V1350Q604 1492 463 1492Q350 1492 217 1401L123 1526Q290 1637 476 1637Q652 1637 734 1552Q811 1472 811 1350V1076Q811 912 875 834H672Q643 875 639 947Q617 906 580 877Q499 816 385 816Q283 816
209 860Q96 928 96 1054Q96 1191 232 1264Q341 1323 543 1323H604ZM604 1203H565Q309 1203 309 1063Q309 961 419 961Q522 961 579 1053Q604 1094 604 1137V1203Z" />
<glyph unicode="&#xab;" horiz-adv-x="1024" d="M764 1014H928L625 551L928 88H764L461 551L764 1014ZM473 1014H637L334 551L637 88H473L170 551L473 1014Z" />
<glyph unicode="&#xac;" horiz-adv-x="1024" d="M51 1106H907V541H741V940H51V1106Z" />
<glyph unicode="&#xad;" horiz-adv-x="1024" d="M82 862H942V694H82V862Z" />
<glyph unicode="&#xae;" horiz-adv-x="1024" d="M289 1098H529Q624 1098 689 1054Q762 1005 762 929Q762 851 696 808Q661 785 611 785V774Q668 752 704 701Q733 660 774 541Q783 513 791 492H639Q634 511 623 551Q600 639 581 669Q546 723 455 723H418V492H289V1098ZM418
989V826H510Q627 826 627 908Q627 989 518 989H418ZM515 1264Q703 1264 846 1125Q998 978 998 778Q998 588 859 445Q712 293 511 293Q309 293 163 447Q27 591 27 779Q27 1005 213 1155Q348 1264 515 1264ZM510 1196Q415 1196 327 1153Q198 1089 136 959Q95 874
95 778Q95 676 141 587Q207 459 338 399Q420 361 513 361Q608 361 692 401Q822 463 886 591Q930 679 930 779Q930 959 799 1083Q680 1196 510 1196Z" />
<glyph unicode="&#xaf;" horiz-adv-x="1024" d="M133 1520H891V1393H133V1520Z" />
<glyph unicode="&#xb0;" horiz-adv-x="2048" d="M342 1749Q415 1749 482 1711Q550 1672 589 1605Q629 1537 629 1459Q629 1351 555 1269Q468 1171 338 1171Q280 1171 225 1195Q152 1228 106 1292Q51 1369 51 1462Q51 1524 79 1582Q138 1704 266 1739Q303 1749
342 1749ZM339 1620Q296 1620 257 1597Q180 1550 180 1459Q180 1399 220 1354Q268 1300 341 1300Q379 1300 413 1318Q500 1363 500 1460Q500 1528 449 1577Q404 1620 339 1620Z" />
<glyph unicode="&#xb1;" horiz-adv-x="2048" d="M936 1526H1112V1069H1700V893H1112V420H936V893H348V1069H936V1526ZM348 276H1700V100H348V276Z" />
<glyph unicode="&#xb2;" horiz-adv-x="1024" d="M63 913V1048Q112 1222 274 1327L331 1364Q377 1393 400 1416Q436 1452 436 1505Q436 1601 340 1601Q255 1601 161 1485L61 1606Q163 1757 346 1757Q449 1757 518 1709Q616 1640 616 1511Q616 1399 540 1331Q504
1298 426 1253L368 1221Q267 1163 251 1075H626V913H63Z" />
<glyph unicode="&#xb3;" horiz-adv-x="1024" d="M217 1411H307Q358 1411 390 1434Q428 1463 428 1517Q428 1586 368 1608Q351 1614 331 1614Q257 1614 155 1526L76 1640Q173 1753 342 1753Q435 1753 503 1714Q612 1652 612 1529Q612 1378 461 1346V1339Q622 1294
622 1135Q622 1014 520 949Q446 901 334 901Q166 901 49 1022L133 1141Q231 1051 326 1051Q434 1051 434 1160Q434 1276 311 1276H217V1411Z" />
<glyph unicode="&#xb4;" horiz-adv-x="2048" d="M1020 1620H1349L1001 1333H780L1020 1620Z" />
<glyph unicode="&#xb5;" horiz-adv-x="1024" d="M133 -245V1157H362V430Q362 139 479 139Q532 139 568 186T627 303T662 438V1157H891V-51H676V150Q614 -74 467 -74Q406 -74 362 -22V-245H133Z" />
<glyph unicode="&#xb6;" horiz-adv-x="2048" d="M887 683H817Q630 683 501 788Q350 912 350 1137Q350 1411 580 1534Q714 1606 895 1606H1585V1508H1403V-77H1284V1508H1006V-77H887V683Z" />
<glyph unicode="&#xb7;" horiz-adv-x="1024" d="M514 1004Q592 1004 655 952Q738 884 738 778Q738 713 701 657Q634 553 511 553Q457 553 408 579Q369 599 342 632Q287 697 287 780Q287 896 384 964Q442 1004 514 1004Z" />
<glyph unicode="&#xb8;" horiz-adv-x="1024" d="M569 264L485 119Q776 105 776 -53Q776 -158 641 -202Q526 -240 260 -244V-137Q559 -133 559 -51Q559 -6 486 10Q431 22 309 23V76L418 264H569Z" />
<glyph unicode="&#xb9;" horiz-adv-x="1024" d="M283 920V1573Q234 1530 123 1497L82 1634Q200 1668 303 1751H447V920H283Z" />
<glyph unicode="&#xba;" horiz-adv-x="1024" d="M446 1628Q572 1628 666 1558Q820 1443 820 1217Q820 1069 747 964Q641 811 446 811Q254 811 148 958Q72 1064 72 1220Q72 1332 115 1422Q171 1540 289 1594Q361 1628 446 1628ZM446 1474Q368 1474 321 1398Q277
1328 277 1218Q277 1122 309 1058Q355 969 447 969Q536 969 579 1054Q613 1120 613 1217Q613 1332 568 1401Q520 1474 446 1474Z" />
<glyph unicode="&#xbb;" horiz-adv-x="1024" d="M260 1014L563 551L260 88H96L399 551L96 1014H260ZM551 1014L854 551L551 88H387L690 551L387 1014H551Z" />
<glyph unicode="&#xbc;" horiz-adv-x="1024" d="M695 866H869V293H957V135H869V-60H726V135H474V305L695 866ZM722 594L624 293H728V438V446V487Q728 524 730 594H722ZM176 703V1413Q134 1371 72 1346L35 1477Q134 1525 199 1608H332V703H176ZM170 -84L74 -41L752
1642L848 1599L170 -84Z" />
<glyph unicode="&#xbd;" horiz-adv-x="1024" d="M176 703V1413Q134 1371 72 1346L35 1477Q134 1525 199 1608H332V703H176ZM551 -51V98Q591 263 711 403L746 444Q812 522 812 607Q812 668 792 685Q778 698 753 698Q699 698 651 565L535 659Q628 868 760 868Q971
868 971 628Q971 522 904 421Q877 379 826 317L795 280Q739 213 719 133H973V-51H551ZM170 -84L74 -41L752 1642L848 1599L170 -84Z" />
<glyph unicode="&#xbe;" horiz-adv-x="1024" d="M717 866H885V293H957V135H885V-60H742V135H496V305L717 866ZM738 594L640 293H744V438V446V487Q744 524 746 594H738ZM220 -84L123 -41L801 1642L897 1599L220 -84ZM156 1245H220Q288 1245 288 1358Q288 1465 235
1465Q191 1465 158 1384L60 1466Q130 1612 250 1612Q336 1612 384 1551Q435 1488 435 1377Q435 1214 336 1174V1167Q373 1150 398 1111Q441 1046 441 950Q441 853 399 785Q344 698 245 698Q105 698 25 866L138 950Q156 908 170 889Q192 860 224 860Q285 860 285
982Q285 1100 218 1100H156V1245Z" />
<glyph unicode="&#xbf;" horiz-adv-x="1024" d="M389 1669H655V1362H389V1669ZM953 123Q805 -141 516 -141Q371 -141 258 -67Q177 -14 129 69Q74 165 74 279Q74 397 140 498Q186 569 297 676Q436 810 439 1182H611Q608 948 579 833Q544 694 432 561Q295 399 295
283Q295 161 384 97Q431 64 519 64Q695 64 803 258L953 123Z" />
<glyph unicode="&#xc0;" horiz-adv-x="1024" d="M516 1800L755 1565H534L186 1800H516ZM395 1493H628L1005 -51H757L667 377H356L266 -51H18L395 1493ZM634 578L559 994Q558 997 555 1013Q532 1128 516 1278H507Q493 1150 464 994L389 578H634Z" />
<glyph unicode="&#xc1;" horiz-adv-x="1024" d="M507 1800H837L489 1565H268L507 1800ZM395 1493H628L1005 -51H757L667 377H356L266 -51H18L395 1493ZM634 578L559 994Q558 997 555 1013Q532 1128 516 1278H507Q493 1150 464 994L389 578H634Z" />
<glyph unicode="&#xc2;" horiz-adv-x="1024" d="M370 1800H653L913 1565H710L512 1702L313 1565H110L370 1800ZM395 1493H628L1005 -51H757L667 377H356L266 -51H18L395 1493ZM634 578L559 994Q558 997 555 1013Q532 1128 516 1278H507Q493 1150 464 994L389 578H634Z" />
<glyph unicode="&#xc3;" horiz-adv-x="1024" d="M868 1641Q801 1572 689 1572Q624 1572 499 1621Q406 1658 334 1658Q237 1658 155 1598V1732Q223 1801 334 1801Q398 1801 524 1752Q618 1715 688 1715Q786 1715 868 1775V1641ZM395 1493H628L1005 -51H757L667
377H356L266 -51H18L395 1493ZM634 578L559 994Q558 997 555 1013Q532 1128 516 1278H507Q493 1150 464 994L389 578H634Z" />
<glyph unicode="&#xc4;" horiz-adv-x="1024" d="M155 1800H421V1595H155V1800ZM602 1800H868V1595H602V1800ZM395 1493H628L1005 -51H757L667 377H356L266 -51H18L395 1493ZM634 578L559 994Q558 997 555 1013Q532 1128 516 1278H507Q493 1150 464 994L389 578H634Z" />
<glyph unicode="&#xc5;" horiz-adv-x="1024" d="M395 1432H628L1005 -51H757L667 356H356L266 -51H18L395 1432ZM634 553L559 953Q558 958 554 975Q531 1088 516 1225H507Q494 1106 464 953L389 553H634ZM512 1800Q590 1800 648 1745Q704 1693 704 1628Q704 1591
686 1557Q670 1526 642 1503Q585 1458 511 1458Q442 1458 388 1498Q319 1549 319 1628Q319 1695 379 1749Q436 1800 512 1800ZM511 1710Q479 1710 453 1695Q411 1671 411 1629Q411 1598 435 1574Q465 1546 511 1546Q567 1546 596 1584Q612 1605 612 1628Q612 1666
577 1691Q549 1710 511 1710Z" />
<glyph unicode="&#xc6;" horiz-adv-x="1024" d="M376 1608H972V1385H636L671 913H929V696H691L728 176H993V-51H540L515 401H315L233 -51H16L376 1608ZM466 1243L347 614H509L474 1243H466Z" />
<glyph unicode="&#xc7;" horiz-adv-x="1024" d="M459 96Q317 144 213 311Q80 527 80 858Q80 1189 221 1424Q356 1647 578 1647Q796 1647 938 1411L805 1247Q758 1330 724 1369Q660 1442 583 1442Q466 1442 404 1312Q322 1140 322 848Q322 619 400 445Q469 289
596 289Q725 289 813 494L952 328Q825 84 588 78L539 10Q570 12 587 12Q680 12 734 -18Q807 -58 807 -115Q807 -244 555 -244Q439 -244 352 -217V-135Q451 -162 546 -162Q660 -162 660 -114Q660 -63 539 -63Q466 -63 350 -76L459 96Z" />
<glyph unicode="&#xc8;" horiz-adv-x="1024" d="M516 1800L756 1565H535L187 1800H516ZM158 1493H881V1294H389V840H822V643H389V154H899V-51H158V1493Z" />
<glyph unicode="&#xc9;" horiz-adv-x="1024" d="M508 1800H838L490 1565H269L508 1800ZM158 1493H881V1294H389V840H822V643H389V154H899V-51H158V1493Z" />
<glyph unicode="&#xca;" horiz-adv-x="1024" d="M371 1800H654L914 1565H711L512 1702L314 1565H111L371 1800ZM158 1464H881V1265H389V827H822V630H389V154H899V-51H158V1464Z" />
<glyph unicode="&#xcb;" horiz-adv-x="1024" d="M156 1802H422V1595H156V1802ZM603 1802H869V1595H603V1802ZM158 1464H881V1265H389V827H822V630H389V154H899V-51H158V1464Z" />
<glyph unicode="&#xcc;" horiz-adv-x="1024" d="M225 1485H799V1315H631V119H799V-51H225V119H393V1315H225V1485ZM516 1800L755 1565H534L186 1800H516Z" />
<glyph unicode="&#xcd;" horiz-adv-x="1024" d="M225 1485H799V1315H631V119H799V-51H225V119H393V1315H225V1485ZM508 1800H837L489 1565H268L508 1800Z" />
<glyph unicode="&#xce;" horiz-adv-x="1024" d="M226 1485H800V1315H632V119H800V-51H226V119H394V1315H226V1485ZM371 1800H654L914 1565H711L512 1702L314 1565H111L371 1800Z" />
<glyph unicode="&#xcf;" horiz-adv-x="1024" d="M226 1485H800V1315H632V119H800V-51H226V119H394V1315H226V1485ZM156 1802H422V1595H156V1802ZM603 1802H869V1595H603V1802Z" />
<glyph unicode="&#xd0;" horiz-adv-x="1024" d="M112 1608H367Q552 1608 696 1518Q821 1439 894 1275Q986 1070 986 781Q986 484 890 272Q812 100 693 29Q558 -51 359 -51H112V779H20V891H112V1608ZM345 1393V891H531V779H345V168H378Q531 168 618 275Q744 431
744 780Q744 1122 611 1291Q530 1393 384 1393H345Z" />
<glyph unicode="&#xd1;" horiz-adv-x="1024" d="M868 1641Q801 1572 690 1572Q624 1572 500 1621Q406 1658 335 1658Q238 1658 156 1598V1732Q223 1801 334 1801Q398 1801 524 1752Q619 1715 688 1715Q787 1715 868 1775V1641ZM82 1485H340L647 684Q730 464 762
311H770Q731 628 725 983L717 1485H942V-51H741L383 799Q331 923 256 1239H248Q293 858 297 582L307 -51H82V1485Z" />
<glyph unicode="&#xd2;" horiz-adv-x="1024" d="M516 1800L756 1565H534L186 1800H516ZM514 1524Q730 1524 852 1308Q973 1094 973 720Q973 406 887 200Q766 -90 510 -90Q281 -90 160 151Q51 366 51 719Q51 1126 192 1341Q313 1524 514 1524ZM511 1323Q421 1323
365 1192Q297 1033 297 720Q297 399 367 241Q422 115 512 115Q604 115 659 247Q727 406 727 719Q727 1044 654 1204Q599 1323 511 1323Z" />
<glyph unicode="&#xd3;" horiz-adv-x="1024" d="M508 1800H837L489 1565H268L508 1800ZM514 1524Q730 1524 852 1308Q973 1094 973 720Q973 406 887 200Q766 -90 510 -90Q281 -90 160 151Q51 366 51 719Q51 1126 192 1341Q313 1524 514 1524ZM511 1323Q421 1323
365 1192Q297 1033 297 720Q297 399 367 241Q422 115 512 115Q604 115 659 247Q727 406 727 719Q727 1044 654 1204Q599 1323 511 1323Z" />
<glyph unicode="&#xd4;" horiz-adv-x="1024" d="M370 1800H653L913 1565H710L512 1702L313 1565H110L370 1800ZM514 1524Q730 1524 852 1308Q973 1094 973 720Q973 406 887 200Q766 -90 510 -90Q281 -90 160 151Q51 366 51 719Q51 1126 192 1341Q313 1524 514
1524ZM511 1323Q421 1323 365 1192Q297 1033 297 720Q297 399 367 241Q422 115 512 115Q604 115 659 247Q727 406 727 719Q727 1044 654 1204Q599 1323 511 1323Z" />
<glyph unicode="&#xd5;" horiz-adv-x="1024" d="M868 1641Q801 1572 690 1572Q624 1572 500 1621Q406 1658 335 1658Q238 1658 155 1598V1732Q223 1801 334 1801Q398 1801 524 1752Q618 1715 688 1715Q787 1715 868 1775V1641ZM514 1524Q730 1524 852 1308Q973
1094 973 720Q973 406 887 200Q766 -90 510 -90Q281 -90 160 151Q51 366 51 719Q51 1126 192 1341Q313 1524 514 1524ZM511 1323Q421 1323 365 1192Q297 1033 297 720Q297 399 367 241Q422 115 512 115Q604 115 659 247Q727 406 727 719Q727 1044 654 1204Q599
1323 511 1323Z" />
<glyph unicode="&#xd6;" horiz-adv-x="1024" d="M155 1802H421V1595H155V1802ZM602 1802H868V1595H602V1802ZM514 1524Q730 1524 852 1308Q973 1094 973 720Q973 406 887 200Q766 -90 510 -90Q281 -90 160 151Q51 366 51 719Q51 1126 192 1341Q313 1524 514 1524ZM511
1323Q421 1323 365 1192Q297 1033 297 720Q297 399 367 241Q422 115 512 115Q604 115 659 247Q727 406 727 719Q727 1044 654 1204Q599 1323 511 1323Z" />
<glyph unicode="&#xd7;" horiz-adv-x="2048" d="M518 1403L1024 897L1529 1403L1648 1284L1142 778L1648 272L1529 154L1024 659L518 154L399 272L905 778L399 1284L518 1403Z" />
<glyph unicode="&#xd8;" horiz-adv-x="1024" d="M792 1675L903 1630L829 1450Q973 1205 973 781Q973 420 872 191Q748 -90 514 -90Q362 -90 250 33L188 -121L84 -76L174 147Q51 395 51 782Q51 1144 154 1372Q277 1647 513 1647Q640 1647 743 1554L792 1675ZM700
1133L356 293Q417 127 512 127Q587 127 639 229Q727 399 727 777Q727 967 700 1133ZM647 1317Q592 1438 512 1438Q431 1438 377 1318Q297 1143 297 784Q297 620 313 492L647 1317Z" />
<glyph unicode="&#xd9;" horiz-adv-x="1024" d="M516 1800L756 1565H535L186 1800H516ZM84 1485H309V518Q309 328 358 230Q380 186 407 161Q445 127 513 127Q715 127 715 518V1485H940V502Q940 291 878 152Q858 110 832 73Q714 -92 510 -92Q345 -92 230 27Q84
179 84 502V1485Z" />
<glyph unicode="&#xda;" horiz-adv-x="1024" d="M508 1800H838L490 1565H268L508 1800ZM84 1485H309V518Q309 328 358 230Q380 186 407 161Q445 127 513 127Q715 127 715 518V1485H940V502Q940 291 878 152Q858 110 832 73Q714 -92 510 -92Q345 -92 230 27Q84
179 84 502V1485Z" />
<glyph unicode="&#xdb;" horiz-adv-x="1024" d="M371 1800H653L913 1565H711L512 1702L313 1565H111L371 1800ZM84 1464H309V518Q309 327 358 229Q380 185 407 161Q445 127 513 127Q715 127 715 518V1464H940V501Q940 291 878 152Q858 110 832 73Q714 -92 510
-92Q345 -92 230 27Q84 179 84 501V1464Z" />
<glyph unicode="&#xdc;" horiz-adv-x="1024" d="M156 1802H422V1595H156V1802ZM602 1802H868V1595H602V1802ZM84 1485H309V518Q309 328 358 230Q380 186 407 161Q445 127 513 127Q715 127 715 518V1485H940V502Q940 291 878 152Q858 110 832 73Q714 -92 510 -92Q345
-92 230 27Q84 179 84 502V1485Z" />
<glyph unicode="&#xdd;" horiz-adv-x="1024" d="M508 1800H838L490 1565H268L508 1800ZM35 1485H289L512 819L734 1485H988L628 615V-51H395V615L35 1485Z" />
<glyph unicode="&#xde;" horiz-adv-x="1024" d="M150 1608H386V1342H474Q677 1342 785 1248Q842 1200 885 1119Q953 993 953 837Q953 571 835 437Q774 368 664 331Q573 299 476 299H386V-51H150V1608ZM386 1137V504H458Q595 504 656 590Q707 662 707 832Q707 992
653 1062Q594 1137 472 1137H386Z" />
<glyph unicode="&#xdf;" horiz-adv-x="1024" d="M90 -51V1163Q90 1350 161 1471Q264 1647 483 1647Q662 1647 767 1521Q862 1408 862 1240Q862 944 619 871V862Q757 820 837 718Q934 592 934 407Q934 220 857 92Q747 -90 520 -90Q431 -90 377 -63V143Q444 119
507 119Q618 119 673 216Q717 294 717 422Q717 551 662 639Q588 756 457 756H377V955H457Q556 955 607 1036Q651 1107 651 1224Q651 1308 622 1363Q580 1444 484 1444Q384 1444 336 1344Q301 1272 301 1161V-51H90Z" />
<glyph unicode="&#xe0;" horiz-adv-x="1024" d="M516 1620L756 1333H535L187 1620H516ZM670 743V766Q670 880 633 941Q597 999 492 999Q350 999 252 868L141 1022Q284 1196 501 1196Q714 1196 811 1058Q895 939 895 733V311Q895 72 952 -51H766Q733 17 719 139H711Q657
-86 422 -86Q267 -86 169 25Q78 127 78 290Q78 534 262 647Q420 743 637 743H670ZM670 567H633Q305 567 305 298Q305 217 340 169Q377 115 439 115Q521 115 591 205Q628 253 650 338Q670 412 670 475V567Z" />
<glyph unicode="&#xe1;" horiz-adv-x="1024" d="M508 1620H838L490 1333H268L508 1620ZM670 743V766Q670 880 633 941Q597 999 492 999Q350 999 252 868L141 1022Q284 1196 501 1196Q714 1196 811 1058Q895 939 895 733V311Q895 72 952 -51H766Q733 17 719 139H711Q657
-86 422 -86Q267 -86 169 25Q78 127 78 290Q78 534 262 647Q420 743 637 743H670ZM670 567H633Q305 567 305 298Q305 217 340 169Q377 115 439 115Q521 115 591 205Q628 253 650 338Q670 412 670 475V567Z" />
<glyph unicode="&#xe2;" horiz-adv-x="1024" d="M371 1620H653L914 1333H711L512 1507L314 1333H111L371 1620ZM670 743V766Q670 880 633 941Q597 999 492 999Q350 999 252 868L141 1022Q284 1196 501 1196Q714 1196 811 1058Q895 939 895 733V311Q895 72 952
-51H766Q733 17 719 139H711Q657 -86 422 -86Q267 -86 169 25Q78 127 78 290Q78 534 262 647Q420 743 637 743H670ZM670 567H633Q305 567 305 298Q305 217 340 169Q377 115 439 115Q521 115 591 205Q628 253 650 338Q670 412 670 475V567Z" />
<glyph unicode="&#xe3;" horiz-adv-x="1024" d="M854 1413Q796 1346 690 1346Q623 1346 506 1397Q399 1444 339 1444Q252 1444 170 1381V1512Q234 1579 336 1579Q396 1579 520 1526Q624 1481 686 1481Q779 1481 854 1542V1413ZM670 743V766Q670 880 633 941Q597
999 492 999Q350 999 252 868L141 1022Q284 1196 501 1196Q714 1196 811 1058Q895 939 895 733V311Q895 72 952 -51H766Q733 17 719 139H711Q657 -86 422 -86Q267 -86 169 25Q78 127 78 290Q78 534 262 647Q420 743 637 743H670ZM670 567H633Q305 567 305 298Q305
217 340 169Q377 115 439 115Q521 115 591 205Q628 253 650 338Q670 412 670 475V567Z" />
<glyph unicode="&#xe4;" horiz-adv-x="1024" d="M156 1599H422V1333H156V1599ZM603 1599H869V1333H603V1599ZM670 743V766Q670 880 633 941Q597 999 492 999Q350 999 252 868L141 1022Q284 1196 501 1196Q714 1196 811 1058Q895 939 895 733V311Q895 72 952 -51H766Q733
17 719 139H711Q657 -86 422 -86Q267 -86 169 25Q78 127 78 290Q78 534 262 647Q420 743 637 743H670ZM670 567H633Q305 567 305 298Q305 217 340 169Q377 115 439 115Q521 115 591 205Q628 253 650 338Q670 412 670 475V567Z" />
<glyph unicode="&#xe5;" horiz-adv-x="1024" d="M514 1710Q566 1710 614 1683Q721 1623 721 1501Q721 1446 693 1397Q633 1292 510 1292Q435 1292 377 1342Q303 1405 303 1503Q303 1597 376 1660Q435 1710 514 1710ZM512 1610Q482 1610 454 1593Q403 1561 403
1501Q403 1460 430 1429Q463 1392 512 1392Q538 1392 562 1404Q621 1435 621 1501Q621 1551 582 1584Q552 1610 512 1610ZM670 743V766Q670 880 633 941Q597 999 492 999Q350 999 252 868L141 1022Q284 1196 501 1196Q714 1196 811 1058Q895 939 895 733V311Q895
72 952 -51H766Q733 17 719 139H711Q657 -86 422 -86Q267 -86 169 25Q78 127 78 290Q78 534 262 647Q420 743 637 743H670ZM670 567H633Q305 567 305 298Q305 217 340 169Q377 115 439 115Q521 115 591 205Q628 253 650 338Q670 412 670 475V567Z" />
<glyph unicode="&#xe6;" horiz-adv-x="1024" d="M414 708V751Q414 871 396 917Q370 987 306 987Q259 987 217 944Q195 922 156 866L45 995Q185 1190 320 1190Q480 1190 526 997Q577 1192 725 1192Q983 1192 983 584V510H604Q610 125 748 125Q790 125 815 171Q831
200 862 299L997 193Q910 -88 737 -88Q555 -88 492 170Q470 45 417 -11Q348 -84 250 -84Q155 -84 100 8Q39 109 39 296Q39 492 127 606Q206 708 365 708H414ZM803 692Q798 857 779 922Q756 997 711 997Q620 997 608 692H803ZM414 541H387Q299 541 258 479Q213 412
213 301Q213 119 284 119Q341 119 386 205Q414 259 414 440V541Z" />
<glyph unicode="&#xe7;" horiz-adv-x="1024" d="M452 84Q279 129 189 271Q100 413 100 627Q100 871 211 1022Q339 1196 561 1196Q760 1196 886 1030L774 870Q689 1006 564 1006Q470 1006 410 917Q340 814 340 628Q340 475 391 380Q453 266 559 266Q621 266 687
320Q742 364 776 430L915 283Q804 88 583 72L538 10Q570 12 586 12Q680 12 734 -18Q807 -58 807 -115Q807 -244 554 -244Q439 -244 352 -217V-135Q450 -162 546 -162Q660 -162 660 -114Q660 -63 538 -63Q465 -63 350 -76L452 84Z" />
<glyph unicode="&#xe8;" horiz-adv-x="1024" d="M517 1620L756 1333H535L187 1620H517ZM885 506H344Q347 320 407 215Q462 119 540 119Q604 119 666 179Q717 229 752 309L893 156Q756 -92 527 -92Q333 -92 218 96Q111 270 111 545Q111 818 203 992Q311 1198 512
1198Q720 1198 814 992Q885 836 885 571V506ZM650 692Q644 842 603 924Q564 1003 505 1003Q451 1003 410 925Q365 840 357 692H650Z" />
<glyph unicode="&#xe9;" horiz-adv-x="1024" d="M508 1620H838L490 1333H269L508 1620ZM885 506H344Q347 320 407 215Q462 119 540 119Q604 119 666 179Q717 229 752 309L893 156Q756 -92 527 -92Q333 -92 218 96Q111 270 111 545Q111 818 203 992Q311 1198 512
1198Q720 1198 814 992Q885 836 885 571V506ZM650 692Q644 842 603 924Q564 1003 505 1003Q451 1003 410 925Q365 840 357 692H650Z" />
<glyph unicode="&#xea;" horiz-adv-x="1024" d="M371 1620H654L914 1333H711L512 1507L314 1333H111L371 1620ZM885 506H344Q347 320 407 215Q462 119 540 119Q604 119 666 179Q717 229 752 309L893 156Q756 -92 527 -92Q333 -92 218 96Q111 270 111 545Q111 818
203 992Q311 1198 512 1198Q720 1198 814 992Q885 836 885 571V506ZM650 692Q644 842 603 924Q564 1003 505 1003Q451 1003 410 925Q365 840 357 692H650Z" />
<glyph unicode="&#xeb;" horiz-adv-x="1024" d="M156 1599H422V1333H156V1599ZM603 1599H869V1333H603V1599ZM885 506H344Q347 320 407 215Q462 119 540 119Q604 119 666 179Q717 229 752 309L893 156Q756 -92 527 -92Q333 -92 218 96Q111 270 111 545Q111 818
203 992Q311 1198 512 1198Q720 1198 814 992Q885 836 885 571V506ZM650 692Q644 842 603 924Q564 1003 505 1003Q451 1003 410 925Q365 840 357 692H650Z" />
<glyph unicode="&#xec;" horiz-adv-x="1024" d="M516 1620L755 1333H534L186 1620H516ZM393 1157H631V-51H393V1157Z" />
<glyph unicode="&#xed;" horiz-adv-x="1024" d="M508 1620H837L489 1333H268L508 1620ZM393 1157H631V-51H393V1157Z" />
<glyph unicode="&#xee;" horiz-adv-x="1024" d="M371 1620H654L914 1333H711L512 1507L314 1333H111L371 1620ZM394 1157H632V-51H394V1157Z" />
<glyph unicode="&#xef;" horiz-adv-x="1024" d="M156 1599H422V1333H156V1599ZM603 1599H869V1333H603V1599ZM394 1157H632V-51H394V1157Z" />
<glyph unicode="&#xf0;" horiz-adv-x="1024" d="M737 1706L833 1577L668 1466Q787 1305 836 1149Q922 874 922 578Q922 285 811 105Q693 -88 505 -88Q309 -88 190 106Q88 274 88 541Q88 824 210 1001Q323 1167 478 1167Q584 1167 639 1094L645 1096Q610 1230 500
1354L240 1180L149 1313L377 1464Q328 1495 247 1524Q231 1530 215 1536L305 1696Q451 1649 551 1581L737 1706ZM501 985Q430 985 376 892Q307 771 307 552Q307 340 372 221Q424 125 501 125Q598 125 652 266Q697 381 697 559Q697 745 635 880Q587 985 501 985Z"
/>
<glyph unicode="&#xf1;" horiz-adv-x="1024" d="M891 1420Q791 1350 690 1350Q621 1350 500 1399Q408 1436 337 1436Q247 1436 133 1377V1530Q234 1600 334 1600Q406 1600 537 1545Q613 1514 687 1514Q779 1514 891 1573V1420ZM133 1157H350V977Q383 1062 440
1113Q514 1180 601 1180Q722 1180 804 1078Q891 969 891 700V-51H662V698Q662 967 557 967Q501 967 445 887Q388 804 362 668V-51H133V1157Z" />
<glyph unicode="&#xf2;" horiz-adv-x="1024" d="M516 1620L755 1333H534L186 1620H516ZM513 1196Q702 1196 813 1025Q923 853 923 554Q923 309 850 148Q742 -92 510 -92Q320 -92 209 78Q98 250 98 551Q98 879 228 1052Q337 1196 513 1196ZM511 999Q445 999 402
924Q338 810 338 552Q338 338 384 224Q429 113 512 113Q581 113 623 191Q685 305 685 553Q685 781 634 897Q589 999 511 999Z" />
<glyph unicode="&#xf3;" horiz-adv-x="1024" d="M508 1620H837L489 1333H268L508 1620ZM513 1196Q702 1196 813 1025Q923 853 923 554Q923 309 850 148Q742 -92 510 -92Q320 -92 209 78Q98 250 98 551Q98 879 228 1052Q337 1196 513 1196ZM511 999Q445 999 402
924Q338 810 338 552Q338 338 384 224Q429 113 512 113Q581 113 623 191Q685 305 685 553Q685 781 634 897Q589 999 511 999Z" />
<glyph unicode="&#xf4;" horiz-adv-x="1024" d="M370 1620H653L913 1333H710L512 1507L313 1333H110L370 1620ZM513 1196Q702 1196 813 1025Q923 853 923 554Q923 309 850 148Q742 -92 510 -92Q320 -92 209 78Q98 250 98 551Q98 879 228 1052Q337 1196 513 1196ZM511
999Q445 999 402 924Q338 810 338 552Q338 338 384 224Q429 113 512 113Q581 113 623 191Q685 305 685 553Q685 781 634 897Q589 999 511 999Z" />
<glyph unicode="&#xf5;" horiz-adv-x="1024" d="M854 1413Q795 1346 689 1346Q622 1346 506 1397Q398 1444 338 1444Q251 1444 170 1381V1512Q233 1579 336 1579Q396 1579 520 1526Q623 1481 686 1481Q778 1481 854 1542V1413ZM513 1196Q702 1196 813 1025Q923
853 923 554Q923 309 850 148Q742 -92 510 -92Q320 -92 209 78Q98 250 98 551Q98 879 228 1052Q337 1196 513 1196ZM511 999Q445 999 402 924Q338 810 338 552Q338 338 384 224Q429 113 512 113Q581 113 623 191Q685 305 685 553Q685 781 634 897Q589 999 511 999Z"
/>
<glyph unicode="&#xf6;" horiz-adv-x="1024" d="M155 1599H421V1333H155V1599ZM602 1599H868V1333H602V1599ZM513 1196Q702 1196 813 1025Q923 853 923 554Q923 309 850 148Q742 -92 510 -92Q320 -92 209 78Q98 250 98 551Q98 879 228 1052Q337 1196 513 1196ZM511
999Q445 999 402 924Q338 810 338 552Q338 338 384 224Q429 113 512 113Q581 113 623 191Q685 305 685 553Q685 781 634 897Q589 999 511 999Z" />
<glyph unicode="&#xf7;" horiz-adv-x="2048" d="M348 866H1700V690H348V866ZM1025 1415Q1065 1415 1102 1391Q1169 1348 1169 1269Q1169 1212 1129 1169Q1086 1124 1022 1124Q987 1124 956 1140Q878 1182 878 1271Q878 1337 930 1381Q970 1415 1025 1415ZM1025
432Q1065 432 1102 408Q1169 365 1169 286Q1169 228 1129 186Q1086 141 1022 141Q987 141 956 158Q878 199 878 288Q878 354 930 398Q970 432 1025 432Z" />
<glyph unicode="&#xf8;" horiz-adv-x="1024" d="M858 1235L962 1169L841 973Q923 803 923 552Q923 277 831 109Q721 -92 512 -92Q357 -92 251 23L163 -121L61 -57L178 133Q98 302 98 552Q98 838 199 1008Q311 1196 510 1196Q656 1196 766 1085L858 1235ZM677 709L380
229Q427 113 512 113Q589 113 634 212Q685 326 685 554Q685 642 677 709ZM641 883Q592 999 512 999Q436 999 391 901Q338 786 338 551Q338 472 344 401L641 883Z" />
<glyph unicode="&#xf9;" horiz-adv-x="1024" d="M516 1620L756 1333H534L186 1620H516ZM133 1157H362V430Q362 139 469 139Q529 139 585 225Q638 306 662 438V1157H891V-51H676V150Q599 -74 417 -74Q258 -74 181 73Q133 165 133 404V1157Z" />
<glyph unicode="&#xfa;" horiz-adv-x="1024" d="M508 1620H838L489 1333H268L508 1620ZM133 1157H362V430Q362 139 469 139Q529 139 585 225Q638 306 662 438V1157H891V-51H676V150Q599 -74 417 -74Q258 -74 181 73Q133 165 133 404V1157Z" />
<glyph unicode="&#xfb;" horiz-adv-x="1024" d="M371 1620H654L914 1333H711L512 1507L314 1333H111L371 1620ZM134 1157H363V430Q363 139 470 139Q529 139 585 225Q639 307 662 438V1157H891V-51H676V150Q599 -74 418 -74Q260 -74 182 73Q134 165 134 404V1157Z" />
<glyph unicode="&#xfc;" horiz-adv-x="1024" d="M156 1599H422V1333H156V1599ZM602 1599H868V1333H602V1599ZM133 1157H362V430Q362 139 469 139Q529 139 585 225Q638 306 662 438V1157H891V-51H676V150Q599 -74 417 -74Q258 -74 181 73Q133 165 133 404V1157Z" />
<glyph unicode="&#xfd;" horiz-adv-x="1024" d="M508 1620H838L490 1333H268L508 1620ZM78 1157H336L467 672Q483 613 514 399H522L529 442Q557 613 574 672L709 1157H961L592 69Q532 -107 465 -175Q396 -244 281 -244H199L146 -25H252Q323 -25 356 42Q372 73
385 123L402 184L78 1157Z" />
<glyph unicode="&#xfe;" horiz-adv-x="1024" d="M364 1700V1006Q384 1097 464 1151Q521 1190 580 1190Q720 1190 818 1050Q933 886 933 594Q933 346 850 189Q748 -6 570 -6Q482 -6 420 66Q382 110 364 176V-244H133V1700H364ZM362 403Q425 193 528 193Q599 193
641 283Q691 389 691 595Q691 772 655 872Q613 989 529 989Q475 989 430 924Q386 862 362 748V403Z" />
<glyph unicode="&#xff;" horiz-adv-x="1024" d="M156 1599H422V1333H156V1599ZM603 1599H869V1333H603V1599ZM78 1157H336L467 672Q483 613 514 399H522L529 442Q557 613 574 672L709 1157H961L592 69Q532 -107 465 -175Q396 -244 281 -244H199L146 -25H252Q323
-25 356 42Q372 73 385 123L402 184L78 1157Z" />
<glyph unicode="&#x2013;" horiz-adv-x="1024" d="M794 840V717H229V840H794Z" />
<glyph unicode="&#x2014;" horiz-adv-x="1024" d="M0 840H1024V717H0V840Z" />
<glyph unicode="&#x2018;" horiz-adv-x="2048" d="M1904 1116H1597V1280Q1597 1543 1763 1751H1904Q1786 1598 1767 1423H1904V1116Z" />
<glyph unicode="&#x2019;" horiz-adv-x="2048" d="M143 1751H450V1587Q450 1325 284 1116H143Q260 1268 280 1444H143V1751Z" />
<glyph unicode="&#x201a;" horiz-adv-x="1024" d="M143 43V367H479V195Q479 7 381 -148Q348 -201 301 -243H125Q257 -113 282 43H143Z" />
<glyph unicode="&#x201c;" horiz-adv-x="2048" d="M1495 1116H1188V1280Q1188 1543 1354 1751H1495Q1377 1598 1358 1423H1495V1116ZM1905 1116H1598V1280Q1598 1543 1764 1751H1905Q1787 1598 1768 1423H1905V1116Z" />
<glyph unicode="&#x201d;" horiz-adv-x="2048" d="M143 1751H450V1587Q450 1325 284 1116H143Q260 1268 280 1444H143V1751ZM553 1751H860V1587Q860 1325 694 1116H553Q670 1268 690 1444H553V1751Z" />
<glyph unicode="&#x201e;" horiz-adv-x="1024" d="M143 43V367H479V195Q479 7 381 -148Q348 -201 301 -243H125Q257 -113 282 43H143ZM553 43V367H889V195Q889 7 791 -148Q758 -201 711 -243H535Q667 -113 692 43H553Z" />
<glyph unicode="&#x2022;" horiz-adv-x="1024" d="M513 1022Q599 1022 667 965Q755 891 755 778Q755 709 717 649Q644 535 510 535Q424 535 356 592Q268 666 268 780Q268 905 372 978Q435 1022 513 1022Z" />
<glyph unicode="&#x2039;" horiz-adv-x="1024" d="M258 551L561 1014H725L422 551L725 88H561L258 551Z" />
<glyph unicode="&#x203a;" horiz-adv-x="1024" d="M299 88L602 551L299 1014H463L766 551L463 88H299Z" />
</font>
</defs>
</svg>
